<?xml version="1.0" encoding="utf-8"?>
<!-- Generator: Adobe Illustrator 24.0.1, SVG Export Plug-In . SVG Version: 6.00 Build 0)  -->
<svg version="1.1" id="Layer_1" xmlns="http://www.w3.org/2000/svg" xmlns:xlink="http://www.w3.org/1999/xlink" x="0px" y="0px"
	 viewBox="0 0 48 48" style="enable-background:new 0 0 48 48;" xml:space="preserve">
<style type="text/css">
	.st0{clip-path:url(#SVGID_2_);}
	.st1{fill:#FFFFFF;}
	.st2{fill:#FFFFFF;filter:url(#Adobe_OpacityMaskFilter);}
	.st3{mask:url(#mask0_2096_7412_1_);}
</style>
<g>
	<defs>
		<rect id="SVGID_1_" x="0.3" y="0.3" width="47.3" height="47.3"/>
	</defs>
	<clipPath id="SVGID_2_">
		<use xlink:href="#SVGID_1_"  style="overflow:visible;"/>
	</clipPath>
	<g class="st0">
		<path class="st1" d="M8.1,14.2c-0.1,0-0.1,0-0.2,0c-0.1,0-0.1-0.1-0.2-0.1c0,0-0.1-0.1-0.1-0.2c0-0.1,0-0.1,0-0.2
			c0-1.4-0.6-2.7-1.5-3.7S3.8,8.4,2.4,8.4c-0.1,0-0.2,0-0.3-0.1C1.9,8.2,1.9,8.1,1.9,8c0-0.1,0-0.2,0.1-0.3c0.1-0.1,0.2-0.1,0.3-0.1
			C3.8,7.5,5.1,7,6.1,6c1-1,1.5-2.3,1.5-3.7c0-0.1,0-0.1,0-0.2c0-0.1,0.1-0.1,0.1-0.2c0,0,0.1-0.1,0.2-0.1c0.1,0,0.1,0,0.2,0
			c0.1,0,0.1,0,0.2,0c0.1,0,0.1,0.1,0.2,0.1c0,0,0.1,0.1,0.1,0.2c0,0.1,0,0.1,0,0.2C8.6,3.6,9.1,5,10.1,6s2.3,1.5,3.7,1.5
			c0.1,0,0.1,0,0.2,0c0.1,0,0.1,0.1,0.2,0.1c0,0,0.1,0.1,0.1,0.2c0,0.1,0,0.1,0,0.2c0,0.1,0,0.1,0,0.2c0,0.1-0.1,0.1-0.1,0.2
			c0,0-0.1,0.1-0.2,0.1c-0.1,0-0.1,0-0.2,0c-1.4,0-2.7,0.6-3.7,1.5c-1,1-1.5,2.3-1.5,3.7c0,0.1,0,0.2-0.1,0.3
			C8.3,14.1,8.2,14.2,8.1,14.2z"/>
		<path class="st1" d="M41.4,46.2c-0.1,0-0.2,0-0.3-0.1C41,46.1,41,46,41,45.9c0-1.1-0.4-2.2-1.2-3c-0.8-0.8-1.9-1.2-3-1.2
			c-0.1,0-0.2,0-0.3-0.1c-0.1-0.1-0.1-0.2-0.1-0.3c0-0.1,0-0.2,0.1-0.3c0.1-0.1,0.2-0.1,0.3-0.1c1.1,0,2.2-0.4,3-1.2
			c0.8-0.8,1.2-1.9,1.2-3c0-0.1,0-0.2,0.1-0.3c0.1-0.1,0.2-0.1,0.3-0.1c0.1,0,0.2,0,0.3,0.1c0.1,0.1,0.1,0.2,0.1,0.3
			c0,1.1,0.4,2.2,1.2,3c0.8,0.8,1.9,1.2,3,1.2c0.1,0,0.2,0,0.3,0.1c0.1,0.1,0.1,0.2,0.1,0.3c0,0.1,0,0.2-0.1,0.3
			c-0.1,0.1-0.2,0.1-0.3,0.1c-1.1,0-2.2,0.4-3,1.2c-0.8,0.8-1.2,1.9-1.2,3c0,0.1,0,0.2-0.1,0.3C41.6,46.2,41.5,46.2,41.4,46.2z"/>
		<path class="st1" d="M45.5,10.4c-1.7-2.8-5.5-3.8-10.9-3c-1.9,0.3-3.7,0.7-5.5,1.2c1.4,0.5,2.8,1.2,4,2c0.6-0.1,1.3-0.3,1.9-0.4
			c1-0.1,1.9-0.2,2.9-0.2c0.9-0.1,1.9,0,2.8,0.3c0.9,0.3,1.7,0.9,2.3,1.6c1,1.7,0.2,4.5-2.3,7.9c-3.5,4.3-7.7,7.9-12.5,10.6
			c-4.7,2.9-9.9,4.9-15.3,5.9c-4.1,0.6-7.1,0-8.1-1.7c-1-1.7-0.2-4.5,2.3-7.9c0.3-0.4,0.4-0.6,0.7-1c-0.2-1.4-0.1-2.9,0.1-4.3
			c-1.1,1.1-2.1,2.3-3.1,3.6c-3.3,4.4-4.1,8.3-2.5,11c0.9,1.2,2,2.1,3.4,2.7c1.3,0.6,2.8,0.8,4.3,0.6c1.1,0,2.2-0.1,3.3-0.3
			c5.8-1.1,11.3-3.2,16.3-6.3c5.1-2.9,9.6-6.8,13.3-11.4C46.3,17.1,47.2,13.2,45.5,10.4z"/>
		<defs>
			<filter id="Adobe_OpacityMaskFilter" filterUnits="userSpaceOnUse" x="8" y="7.8" width="32.1" height="32.3">
				<feColorMatrix  type="matrix" values="1 0 0 0 0  0 1 0 0 0  0 0 1 0 0  0 0 0 1 0"/>
			</filter>
		</defs>
		<mask maskUnits="userSpaceOnUse" x="8" y="7.8" width="32.1" height="32.3" id="mask0_2096_7412_1_">
			<path class="st2" d="M39.7,20.1c0.7,3.1,0.5,6.4-0.6,9.3c-1.1,3-3.1,5.6-5.7,7.5c-2.6,1.9-5.7,2.9-8.9,3.1
				c-3.2,0.1-6.3-0.7-9.1-2.4c-2.7-1.7-4.9-4.1-6.2-7c-1.3-2.9-1.8-6.1-1.3-9.3c0.5-3.2,1.9-6.1,4.1-8.4c2.2-2.3,5-4,8.1-4.7
				c4.2-1,8.5-0.3,12.2,1.9C36.1,12.4,38.7,16,39.7,20.1z"/>
		</mask>
		<g class="st3">
			<path class="st1" d="M39.9,20.9c-1.7,2-3.6,3.9-5.8,5.5h-5.3c-0.5,0-1-0.1-1.4-0.3c-1-0.4-1.9-1.1-2.4-2c-0.5-0.9-0.7-2-0.6-3.1
				c0.2-1.1,0.7-2,1.6-2.7c0.8-0.7,1.9-1.1,2.9-1.1c0.2,0,0.4,0,0.5,0c0-0.7,0.2-1.4,0.6-2.1c0.3-0.6,0.8-1.2,1.4-1.6
				c0.6-0.4,1.3-0.7,2-0.8c0.7-0.1,1.4-0.1,2.1,0.1c0.2,0,0.4,0.1,0.6,0.2c-1-1.2-2.2-2.2-3.6-3c-3.6-2.2-8-2.9-12.2-1.9
				c-3.1,0.7-5.9,2.4-8.1,4.7c-2.2,2.3-3.6,5.3-4.1,8.4c0,0.1,0,0.1,0,0.2h3c1.1,0,2.3,0.4,3.1,1.2c0.8,0.8,1.3,1.9,1.3,3.1
				c0,0.1,0,0.2,0,0.4c0.6,0,1.1,0.1,1.7,0.3s1,0.5,1.4,0.9c0.4,0.4,0.7,0.9,1,1.4c0.2,0.5,0.3,1.1,0.3,1.7c0,0.6-0.1,1.1-0.3,1.7
				c-0.2,0.5-0.6,1-1,1.4c-0.4,0.4-0.9,0.7-1.4,0.9c-0.5,0.2-1.1,0.3-1.7,0.3h-3.2c1,1.1,2.1,2,3.4,2.8c2.7,1.7,5.9,2.5,9.1,2.4
				c3.2-0.1,6.3-1.2,8.9-3.1c2.6-1.9,4.6-4.5,5.7-7.5C40.1,26.7,40.4,23.8,39.9,20.9z"/>
		</g>
	</g>
</g>
</svg>
