<?xml version="1.0" encoding="utf-8"?>
<!-- Generator: Adobe Illustrator 24.0.1, SVG Export Plug-In . SVG Version: 6.00 Build 0)  -->
<svg version="1.1" id="svg5" xmlns:svg="http://www.w3.org/2000/svg"
	 xmlns="http://www.w3.org/2000/svg" xmlns:xlink="http://www.w3.org/1999/xlink" x="0px" y="0px" viewBox="0 0 800 800"
	 style="enable-background:new 0 0 800 800;" xml:space="preserve">
<style type="text/css">
	.st0{fill-rule:evenodd;clip-rule:evenodd;fill:#FFFFFF;}
</style>
<g id="layer1" transform="translate(-396,-292)">
	<path id="path453477" class="st0" d="M996,717.3c-13.8,0-25,11.2-25,25s11.2,25,25,25s25-11.2,25-25S1009.8,717.3,996,717.3z"/>
	<path id="path453475" class="st0" d="M921,717.3c-13.8,0-25,11.2-25,25s11.2,25,25,25s25-11.2,25-25S934.8,717.3,921,717.3z"/>
	<path id="path453473" class="st0" d="M846,717.3c-13.8,0-25,11.2-25,25s11.2,25,25,25s25-11.2,25-25S859.8,717.3,846,717.3z"/>
	<path id="path453457" class="st0" d="M746,492.3c-13.8,0-25,11.2-25,25c0,13.8,11.2,25,25,25s25-11.2,25-25
		C771,503.5,759.8,492.3,746,492.3z"/>
	<path id="path453455" class="st0" d="M671,492.3c-13.8,0-25,11.2-25,25c0,13.8,11.2,25,25,25s25-11.2,25-25
		C696,503.5,684.8,492.3,671,492.3z"/>
	<path id="path453453" class="st0" d="M596,492.3c-13.8,0-25,11.2-25,25c0,13.8,11.2,25,25,25s25-11.2,25-25
		C621,503.5,609.8,492.3,596,492.3z"/>
	<path id="path453429" class="st0" d="M497.5,342.3c-27.3,0-51.5,21.9-51.5,50v250c0,28.1,24.1,50,51.5,50H546v75
		c0,13.8,11.2,25,25,25c6.6,0,13-2.6,17.7-7.3l92.7-92.7H696v175c0,28.1,24.1,50,51.5,50h122l92.7,92.7c9.8,9.8,25.6,9.8,35.4,0
		c4.7-4.7,7.3-11,7.3-17.7v-75h89.7c27.3,0,51.5-22,51.5-50v-250c0-28-24.1-50-51.5-50H896v-175c0-28.1-24.1-50-51.5-50H497.5z
		 M497.5,392.3h347.1c1,0,1.3,0.1,1.5,0.2v249.7c-0.1,0.1-0.5,0.2-1.5,0.2H671c-6.6,0-13,2.6-17.7,7.3L596,707v-39.6
		c0-13.8-11.2-25-25-25h-73.5c-1,0-1.3-0.1-1.5-0.2V392.5C496.1,392.4,496.5,392.3,497.5,392.3L497.5,392.3z M896,617.3h198.5
		c1,0,1.3,0.1,1.5,0.2v249.7c-0.1,0.1-0.5,0.2-1.5,0.2H979.8c-13.8,0-25,11.2-25,25V932l-57.3-57.3c-4.7-4.7-11-7.3-17.7-7.3H747.5
		c-1,0-1.3-0.1-1.5-0.2V692.3h98.5c27.3,0,51.5-21.9,51.5-50V617.3z"/>
</g>
</svg>
