<?xml version="1.0" encoding="utf-8"?>
<!-- Generator: Adobe Illustrator 24.0.1, SVG Export Plug-In . SVG Version: 6.00 Build 0)  -->
<svg version="1.1" id="Layer_1" xmlns="http://www.w3.org/2000/svg" xmlns:xlink="http://www.w3.org/1999/xlink" x="0px" y="0px"
	 viewBox="0 0 800 800" style="enable-background:new 0 0 800 800;" xml:space="preserve">
<style type="text/css">
	.st0{fill:#FFFFFF;}
</style>
<title>csharp</title>
<path class="st0" d="M507.2,356.9l-13.5,61.9H546l13.2-61.9H507.2z M502.8,252.4h26.1l-17.3,82.9h51.9l17.7-82.9h25.3l-17.4,82.9
	l54.1-0.1l-4.7,21.8h-53.9l-12.9,61.9h57.8l-5.5,21.8h-56.7l-18.1,82h-25.9l17.7-82h-51.5l-17.4,82h-25.3l17.4-82h-54.4l4.1-21.8
	h54.6l12.5-61.7h-57l4.3-21.8h57L502.8,252.4z M319.6,247.6c22.3,0.1,43.6,4.5,63.2,12.3l-1.2-0.4v36.9
	c-19.7-11.1-43.2-17.7-68.3-17.7c-0.7,0-1.4,0-2.1,0h0.1c-1.1,0-2.3,0-3.6,0c-30.9,0-58.8,13-78.4,33.9l0,0
	c-19.7,22.4-31.8,52-31.8,84.4c0,2.2,0.1,4.4,0.2,6.7v-0.3c-0.1,1.9-0.2,4.1-0.2,6.3c0,30.6,11.3,58.5,29.8,79.9l-0.1-0.1
	c18.4,19.7,44.5,32,73.6,32c1.4,0,2.8,0,4.2-0.1h-0.2c1.1,0,2.4,0.1,3.6,0.1c27,0,52.4-7.4,74.1-20.2l-0.7,0.4l-0.1,33.8
	c-22.1,11-48.2,17.5-75.8,17.5c-2.2,0-4.4-0.1-6.6-0.1h0.3c-1.7,0.1-3.7,0.1-5.8,0.1c-37.4,0-71.1-15.6-95.1-40.6l0,0
	c-23.6-26.4-38-61.4-38-99.7c0-2.4,0.1-4.8,0.2-7.1v0.3c-0.1-2-0.1-4.4-0.1-6.8c0-41.7,16.3-79.7,42.9-107.8l-0.1,0.1
	c26.3-26.9,62.9-43.6,103.5-43.6c1.8,0,3.5,0,5.3,0.1h-0.3c1.2,0,2.5-0.1,3.7-0.1C317.1,247.6,318.4,247.6,319.6,247.6L319.6,247.6z
	 M400,25.1L400,25.1C193,25.1,25.1,193,25.1,400S192.9,774.9,400,774.9S774.9,607,774.9,400c0-103.5-42-197.2-109.8-265.1l0,0
	C597.3,67,503.5,25.1,400,25.1C400,25.1,400,25.1,400,25.1z"/>
</svg>
