<?xml version="1.0" encoding="utf-8"?>
<!-- Generator: Adobe Illustrator 24.0.1, SVG Export Plug-In . SVG Version: 6.00 Build 0)  -->
<svg version="1.1" id="Layer_1" xmlns="http://www.w3.org/2000/svg" xmlns:xlink="http://www.w3.org/1999/xlink" x="0px" y="0px"
	 viewBox="0 0 800 800" style="enable-background:new 0 0 800 800;" xml:space="preserve">
<style type="text/css">
	.st0{fill:#FFFFFF;}
</style>
<g id="c133de6af664cd4f011a55de6b001b19">
	<path class="st0" d="M754.9,0.8l-66.5,720.8L400,799.2l-288.3-77.6L45.1,0.8H754.9z M620.8,147.3h-221H174.8l10.8,87h214.2h12
		l-12,5l-206.4,85.9l6.8,85.1l199.5,0.6l106.9,0.3l-6.8,113.4L399.7,553V553l-0.8,0.2l-96.7-24.4l-5.9-70.4h-0.3h-89.7h-0.3
		l11.7,135.9l181.9,53.8V648l0.3,0.1L581,595.3l23.5-269.9H399.7h-0.5l0.5-0.2L612,234.4L620.8,147.3z"/>
</g>
</svg>
