<?xml version="1.0" encoding="utf-8"?>
<!-- Generator: Adobe Illustrator 24.0.1, SVG Export Plug-In . SVG Version: 6.00 Build 0)  -->
<svg version="1.1" id="Layer_1" xmlns="http://www.w3.org/2000/svg" xmlns:xlink="http://www.w3.org/1999/xlink" x="0px" y="0px"
	 viewBox="0 0 800 800" style="enable-background:new 0 0 800 800;" xml:space="preserve">
<style type="text/css">
	.st0{fill:#FFFFFF;}
</style>
<path class="st0" d="M263.1,90.3c58.4,0,105.6,47.2,105.6,105.6s-47.2,105.6-105.6,105.6s-105.6-47.2-105.6-105.6
	S204.7,90.3,263.1,90.3z M488.4,464.7l-68.1,196.9H276.9v-12.2c0-20.3-16.6-36.9-36.9-36.9H104.7V477.2c0-6.9,5.6-12.2,12.2-12.2
	s12.2,5.6,12.2,12.2v110.6h110.6c29.7,0,54.7,21.3,60.3,49.4h102.5l55.3-160.6c-13.7-28.4-27.8-57.2-38.4-76.3
	c-20.9-45-66.9-76.3-119.7-76.3H138.1C65.3,323.8,6.3,383.1,6.3,455.6v198.8c0,30.6,24.7,55.3,55.3,55.3h647.8l11.3-32.2l73.1-212.8
	L488.4,464.7L488.4,464.7z M617.5,608.1c-13.4,0-24.4-6.9-24.4-15.6s10.9-15.6,24.4-15.6s24.4,6.9,24.4,15.6
	C641.9,600.9,630.9,608.1,617.5,608.1z"/>
</svg>
