<?xml version="1.0" encoding="utf-8"?>
<!-- Generator: Adobe Illustrator 24.0.1, SVG Export Plug-In . SVG Version: 6.00 Build 0)  -->
<svg version="1.1" id="Layer_1" xmlns="http://www.w3.org/2000/svg" xmlns:xlink="http://www.w3.org/1999/xlink" x="0px" y="0px"
	 viewBox="0 0 800 800" style="enable-background:new 0 0 800 800;" xml:space="preserve">
<style type="text/css">
	.st0{fill:#FFFFFF;}
</style>
<path class="st0" d="M105.6,252.2v291.7h34.1V333c0.3-13.3-0.3-26.7-1.7-40h1.3c2.5,6.4,5.6,12.5,9.3,18.2l150,232.5h41.8V252.2h-34
	v205.1c-0.4,14.3,0.4,28.6,2.1,42.9h-0.8c-1.8-3.5-5.9-10-11.9-19.5l-146-228.4L105.6,252.2z M416,252.2v291.7h155.1l0.1-32H450.9
	V410.7h105.4V380H450.9v-96.9h113v-30.9L416,252.2z M597.3,252.2v30.9h83.8v260.8h34.1V283.1H800v-30.8L597.3,252.2z M21.8,502.2
	c-5.7,0.1-11.2,2.6-15.2,6.9c-4.2,4.2-6.5,10-6.5,16c-0.1,6,2.3,11.7,6.5,16c4.1,4.3,10,6.8,16,6.7c6.1,0,11.8-2.4,16-6.7
	c4.3-4.2,6.8-10,6.8-16c0-6-2.5-11.9-6.8-16c-4.2-4.4-9.9-6.9-16-6.9C22.3,502.2,22,502.2,21.8,502.2L21.8,502.2z"/>
</svg>
