<?xml version="1.0" encoding="utf-8"?>
<!-- Generator: Adobe Illustrator 24.0.1, SVG Export Plug-In . SVG Version: 6.00 Build 0)  -->
<svg version="1.1" id="Layer_1" xmlns="http://www.w3.org/2000/svg" xmlns:xlink="http://www.w3.org/1999/xlink" x="0px" y="0px"
	 viewBox="0 0 800 800" style="enable-background:new 0 0 800 800;" xml:space="preserve">
<style type="text/css">
	.st0{fill:#FFFFFF;}
</style>
<g id="_x33_e91140ac1bfb9903b91c1b0ca0962b6">
	<path class="st0" d="M784.2,437.2l-347,347c-20.1,20.1-52.6,20.1-72.7,0L15.8,435.6c-20.1-20.1-20.1-52.6,0-72.7l239-239l90.5,90.5
		c-9.3,22.2-4.9,48.8,13.2,66.9c5.9,5.9,12.7,10.4,20,13.4v219.2c-7.3,3-14.1,7.4-20,13.3c-23.9,23.9-23.9,62.6,0,86.5
		c23.9,23.9,62.6,23.9,86.5,0c23.9-23.9,23.9-62.6,0-86.5c-4.9-4.8-10.4-8.7-16.2-11.6l0-217.2l82.5,82.5
		c-9.1,22.1-4.7,48.6,13.3,66.5c23.9,23.9,62.6,23.9,86.5,0c23.9-23.9,23.9-62.6,0-86.5c-17.1-17.1-41.8-21.9-63.2-14.5l-88.5-88.5
		c7.4-21.4,2.6-46.1-14.5-63.2c-17-17-41.5-21.8-62.8-14.6l-91.8-91.8l72.4-72.4c20.1-20.1,52.6-20.1,72.7,0l348.6,348.6
		C804.2,384.5,804.2,417.1,784.2,437.2z"/>
</g>
</svg>
