<?xml version="1.0" encoding="utf-8"?>
<!-- Generator: Adobe Illustrator 24.0.1, SVG Export Plug-In . SVG Version: 6.00 Build 0)  -->
<svg version="1.1" id="Layer_1" xmlns="http://www.w3.org/2000/svg" xmlns:xlink="http://www.w3.org/1999/xlink" x="0px" y="0px"
	 viewBox="0 0 800 800" style="enable-background:new 0 0 800 800;" xml:space="preserve">
<style type="text/css">
	.st0{fill:#FFFFFF;}
</style>
<path class="st0" d="M449.1,798.3c-10.4-1.8-21.2-6.8-27.3-12.3c-4.2-4.3-6.5-10.2-6.7-16.2c0-6.1,3.1-14.7,8.1-23.3
	c3-4.8,5.4-10,7-15.5c1-3.8,3.2-9.9,4.9-13.8l3-7.1l0.8-47.8c0.4-26.4,1.2-50.9,1.8-54.7c1.7-11,4.5-21.6,8.3-32l2.9-6.9l-4.2-2.5
	c-3.8-2.3-6.9-5.6-19.3-20.3c-15.2-18-35.3-27.9-63.7-31.3c-9.3-0.9-18.6-1.6-28-1.9c-41.7-1.9-65.5-10.7-87-31.8
	c-16-15.8-24.4-34.1-27.7-61.2c-4.6-36.6-9.6-55.4-19-70.6c-2.4-3.8-5-7.3-7.9-10.6l-3.8-3.8l-8.3,5.4c-4.6,3-11,6.8-14.1,8.5
	c-10.4,5.7-20.3,12.1-29.8,19c-23.3,16.9-48.7,38.1-62.6,52.1c-6.3,6.3-9.5,9-10.9,8.7c-9.5-1.4-2.2-42.6,13.3-73.6
	c19.8-40,53.1-76.8,91.7-101.7c31.6-20.4,82.8-48.6,106.5-58.5c42.1-17.6,96.5-36.6,133.7-46.8c7.8-2.2,12.6-4.2,15.9-6.4
	c7.3-5.1,14.4-7.6,22.6-7.7c6.9-0.1,7.6-0.3,14.2-4.7c7.8-5.1,10.1-5.4,18-2.6l5.1,1.8l6.3-4.3l6.3-4.2l9,0.1c6.9,0.1,10-0.1,13-1.4
	c3.8-1.7,3.9-2,5-8.2c2.3-13.6,2.6-20.3,1.2-28.5c-1.8-10.8-2.1-52.7-0.3-60.9c2-8.9,3.3-10.7,9.9-13.9c9.9-4.8,17.3-6.3,34.4-6.3
	c20.8,0,31.4,2.9,39.2,10.4c7,6.8,8.2,22.7,4.5,59.9c-2.2,21.5-2.5,27.5-1.8,41.5c0.3,9,0.9,17.5,1.2,18.6c0.5,2.2,1.1,2.4,8.6,2.5
	c7.4,0.1,8.7,0.5,15.7,4.2c6.8,3.5,11.9,7.8,12.9,11c0.1,0.6,1.3,0.6,3.4,0c4-1.2,7.6,0.1,10.4,3.6c1.7,2.2,2.7,2.6,6.6,2.6
	c5.4,0,7.3,1.3,11.7,7.8c2.1,3,5,5.2,8.2,6.7c7.3,3.6,17.2,13.8,21,21.9c5.8,12,7,25.9,3.4,38.4c-1.3,4.7-1.3,4.8,1.4,9.4
	c5.7,9.8,7.8,21.8,5.5,31.9l-1.3,6l3.9,3.9c19.4,19.4,16.5,51-7.2,79.3c-2.5,3-5.5,7.7-6.7,10.5c-4.5,12.1-9.8,20.6-16.5,27.6
	l-6.9,7h-7c-7,0-16.9-2.3-22.9-5.5c-2.5-1.3-2.6-1.3-2.1,0.3c1.6,5.7,5.5,29,6.8,41.9c2.1,19.8,1.4,48.6-1.3,61
	c-2,9.1-5.4,18-9.9,26.2c-2.6,4.2-2.7,5.1-2.2,10.2c0.8,7.1-0.9,19.2-3.8,27.1c-3.5,9.3-4.8,13.5-5.6,18.2c-0.6,4-0.6,4,2.2,4
	c3.8,0,5.8,2.2,5.8,6.7c0,1.9-1.7,12.5-3.8,23.3c-5.7,30.4-6.1,33.7-6.1,63.2c-0.1,30.3-0.1,30.1,6.8,34.6l15.5,10
	c13.3,8.8,27.6,16.2,42.6,21.9c21.8,8.6,24.8,10.8,24.8,18.1c0,3.3-0.6,4.4-3.4,7c-8.3,8.1-24.8,9.9-57.8,6.4
	c-17.2-1.6-34.5-2.5-51.7-2.5c-45.6-0.7-52.2-2.2-58.2-13.6c-3.4-6.5-2.7-15,1.9-28.9c2.1-6.1,3.9-12.4,5.5-18.8
	c3.1-15.1,1.1-33.1-6.3-53.4l-6.3-17.3c-6.1-17.6-9.5-49.8-5.8-57c0.7-1.4,1.8-1.7,5-1.6l3.9,0.4l3.2-6.8c2.5-5.4,5.2-8.9,12.6-16.3
	l9.5-9.5l-0.5-6.1c-0.4-5.8-8.1-34.3-9.1-34.1c-0.4,0-2.5,2.9-4.8,6.5c-5.7,8.6-18.3,21.9-25.5,26.7c-3.1,2.1-5.7,4.5-5.7,5.3
	c-0.1,3.5-3.1,10.4-6.8,15.2c-3.5,4.7-3.8,5.5-3.3,9.6c0.9,6.1-1,25.8-3.4,36.1c-2.1,7.5-5,15-8.6,22.1c-9,18.6-15.8,35.3-17.5,43
	c-1.3,7.4-1.9,15-2.4,22.4c-0.4,8.8-1.3,17.4-1.9,19.3c-0.9,2.5-0.9,4.4-0.1,8.2c0.6,2.7,1,8.8,0.9,13.7c-0.1,6.7,0.4,11,2.4,18.8
	c3.4,13.3,4,21.6,2.5,26.6c-1.1,3.1-2.1,4.3-5.6,6C483.2,798.1,461,800.3,449.1,798.3L449.1,798.3z M480.7,787.6
	c4.5-1.3,8.5-5.2,8.5-8.7c0-1.6-1.3-6.1-2.9-10.2c-3.1-7.7-8.5-28-8.5-31.4c0-1.7,0.1-1.8,2.7-0.4l2.9,1.6v-3.6
	c-0.4-3.4-1.2-6.7-2.2-9.9c-2.5-7.4-2.7-7.5-18.5-8.5L452,716l-3.9,3.8c-2.1,2.2-4,4.5-5.6,7.3c-1.7,3.4-2.4,8.5-1.3,9.6
	c0.3,0.4,2.9,0,5.7-0.6c1.7-0.5,3.4-0.8,5.2-0.9c0,0.1-2.9,2.5-6.5,5c-15.6,11.7-21.1,18.9-21.1,28c0,9.5,9,16.9,23.1,19.2
	C457.2,788.7,476,789.1,480.7,787.6L480.7,787.6z M692.6,772.1c3.9-4.7,3.4-9.5-1.6-15c-2.9-2.9-6.1-5.3-9.8-7.3
	c-3.7-1.9-7.3-4.2-11-6.5c-2.9-2.1-12-7.4-20.3-12c-6-3.3-11.8-6.7-17.6-10.3l-2.3-1.8v-35.8c0-35.3-0.1-35.8-2-35.3
	c-9.1,2.5-24.2,3.7-43.3,3.3l-20.7-0.3l3,7.3c5.6,13.8,8.5,32.3,8.5,53.5c0,8-0.5,10.8-2.5,16.4c-1,2.7-1.9,5.5-2.9,8.2
	c-0.4,1.2,1,2.1,6.4,3.7c3.9,1.2,9.6,2.3,12.9,2.7l6,0.6l-0.7,6c-0.6,6.8,0.1,13.9,1.8,16.1c1,1.3,5,1.8,23.1,2.6
	c13.7,0.6,28.5,2.1,40.2,3.8c10.1,1.6,21.1,2.9,24.3,2.9C689.7,775.2,690.2,774.9,692.6,772.1L692.6,772.1z M484.1,711.2
	c0.5-0.4,1.3-7.4,1.6-15.8c1-23.3,1.9-26.7,13.7-53c9.6-21.5,14.7-41.5,14.3-55.7l-0.3-8.5l-3.6,3.5c-7.6,7.6-2.4-4.3,6.6-14.8
	c6.8-8.1,9.1-12.5,10.2-19.6c0.5-2.9,1.6-4.3,6-7.7c16.8-12.8,28.9-28.9,36.8-48.7c1.8-4.7,6.5-20.7,10.4-35.6
	c7.3-27.5,11.2-39.3,14.7-44.4c1.3-1.9,1.8-2.3,1.6-1c-2.1,7.8-2.7,11.1-4.4,21.2c-1,6.4-3,18.9-4.3,27.6
	c-2.5,17.9-5.1,29.3-8.6,38.2l-2.3,6l6.3,16.1c6.5,16.5,9.5,28.5,10,40.1l0.4,6.5l-5.1,1c-6.8,1.2-12.6,4.9-16.7,10.4
	c-4.4,6.4-6.9,11.6-5.7,12.8c0.5,0.5,6.9,1.7,14.2,2.6c11.3,1.3,15.6,1.3,30.6,0.4c6.5-0.3,12.9-0.9,19.3-1.8
	c1.4-0.5,2.9-3.4,5.2-10.8c5.4-17,6.4-23.1,5.7-35l-0.5-10.5l2.7-3.5c6.4-8.1,11.3-22.7,13.4-39.7c2.5-20.8-2.1-64.5-10.6-101.9
	c-4-17.9-5.7-28.5-5.7-36.3v-6.9l-6.4,0.6c-22.9,2.5-50.7,1.8-67.6-1.7c-9.3-1.8-32.5-8.7-37.6-11l-4-1.8l-0.5,4.5
	c-0.4,2.5-0.8,5-1.3,7.6c-0.8,2.7-0.5,3.4,4.3,8.1c6,6.1,7.8,9.3,7.8,13.4c0,2.6-1.4,4.7-8.7,12.2c-5.4,5.6-12.1,11.6-17.3,15
	l-8.5,5.7l-3.6,12.6c-13,46.2-15.5,88.3-6.9,118.4l2.1,7.5l-4.2,5.2c-15.6,19.6-24.9,34.6-26.3,43c-0.3,1.7-1.6,7.2-2.9,12.3
	c-3.4,12.9-6,31.8-7.1,52.2c-0.8,17-1.9,34.3-3.4,51.3l-0.6,5.1l6.5,1.9c3.6,1.2,9.1,2.5,12.3,3c5.8,0.9,16.7,0.7,18.3-0.3
	L484.1,711.2z M610.6,639.6c10.1-0.6,19.4-2.2,21.2-3.8c0.8-0.5,1.7-3.3,1.9-6l0.6-5l-8.1,1.8c-6.4,1.3-12.8,2.1-19.1,2.6
	c-15.4,0.6-30.9,0.3-46.1-1.3c-5.1-0.8-5.1-0.8-3.5,5.8c1.3,5,1.6,5.2,14.9,6.1C581.2,640.7,593.6,640.6,610.6,639.6L610.6,639.6z
	 M602.1,616.9c13.3-1.2,29.8-4,33.1-5.7c1-0.5,1.9-2.5,2.3-4.7l1.2-6.9l0.6-3.3l-3.3,0.6c-14.4,3-25.4,3.9-47.3,3.9
	c-21.3,0-23.8-0.1-29.4-2.1c-2.1-0.9-4.4-1.4-6.8-1.6c-0.9,0.5-1,8-0.3,13.1c0.5,3.1,1,3.6,4.2,4.5c9.9,2.7,26.6,3.4,45.6,1.8
	L602.1,616.9z M360.4,499.5c33.3-9.6,76.9-37.9,112.6-73.3c11.6-11.6,13-13.2,14.6-18.3l2.1-6.7c0.3-0.5-1.8-1.4-4.5-2.1
	c-7.1-1.7-12.6-5.9-12.6-9.6c0-2.2-1.3-4.4-5.1-8.5c-6.1-6.9-7.7-9.9-8.3-16.5l-0.5-5.3l-7.3-5.2c-4.2-3-18.8-11.1-34.3-18.9
	c-11.7-5.7-23.3-12-34.6-18.8c-13-8.7-21.8-19.1-26.7-31.5c-0.9-2.5-2.1-4.6-2.5-4.6c-1,0-30.3,28.3-42.8,41.5
	c-30.9,32.6-52.1,60.8-65.5,87c-3.4,6.5-7,14.2-8.1,17l-2,5.2l2.4,8.7c1.4,4.7,4.4,12.4,6.8,16.9c8.2,16.1,18,25.9,34.1,33.9
	c17.3,8.6,32.7,11.6,58.3,11.2c13.8-0.1,17.9-0.5,24-2.3L360.4,499.5z M97.4,385.3c21.9-19.4,52.1-40.6,89.1-62.6
	c24.2-14.4,117.9-61.3,160.9-80.5c7.8-3.5,14.9-6.8,15.6-7.2c0.8-0.5,3-6.1,5.1-12.4c9.1-28.9,13.7-34.6,30.2-38.4
	c2.1-0.5,2.6-1.2,2.6-3.3c0-3.8,2.6-12.5,4.8-16.4c1.7-3,1.7-3.1,0.3-2.7c-0.9,0.3-6.4,1.8-12.1,3.5
	c-79.4,22.9-148.8,53.4-208.7,91.4c-63.9,40.6-100.8,89.3-111.5,147.6l-0.8,4.3l7.8-7.7c4.2-4.3,11.7-11.3,16.7-15.6L97.4,385.3z
	 M686.6,396.4c6.4-3.3,16.3-18.2,19.9-30.1c1-4.2,3.1-8.1,6.1-11.3c9.6-10.7,17.6-30.1,17.7-43.4c0-20.7-11.7-28.7-28.8-19.8
	c-2.2,1.1-4,1.8-4.3,1.6c-0.9-0.9,3.9-5.6,9.8-9.3c7.7-5.1,9.1-8.1,9.1-18.9c0-9.1-2.2-16.4-7.4-24.5c-2.3-3.5-3.3-5.9-2.9-7.3
	l2.3-8.7c3.3-11.6,2.1-24.9-3-33.3c-7.5-12.8-16.8-19-29.7-20.1l-7.5-0.5l4.4,4.9c13.2,14.2,19.5,32,16.9,47.3
	c-1.3,7.8-2.5,9.4-10,12.4l-4.4,1.8l0.5,6c0.9,9.8-0.8,16.9-7,30.1c-3.1,6.6-5.5,12.6-5.2,13.3c0.8,2.2,9.4,6.4,16.2,8.1l6.7,1.6
	l-4.2,1.4c-5.5,1.7-6.6,4.2-6.6,13.1c0,8.2,1.2,11.6,7.1,20.6c2.7,3.9,4.5,7.9,4.8,10.3c0.5,3.6,0.4,3.9-2.6,5
	c-3.4,0.9-6.9,1.6-10.4,1.7c-12.2,0.8-13.1,1.2-18.6,6.4c-5,4.7-5.1,5-5.1,10.1c0,7.2,2.7,21.6,4.4,23.6c2.2,2.4,14.6,8.5,19.4,9.4
	C678.4,398.9,682.8,398.3,686.6,396.4L686.6,396.4z M506.3,386.6c8-6.3,14.2-12.5,17.7-17.9c2.2-3.3,2.3-3.9,1.3-6.6
	c-1.8-4.2-13.8-15-20.5-18.2c-4.4-2-9.1-3.4-13.9-4l-8.2-1.1l-5.1-6.4c-10.6-13-16.4-23.2-24.7-42.8c-7.3-16.7-13.7-26.4-23.8-36.1
	c-4.2-3.9-7.1-7.2-6.9-7.2c0.5,0,5.5,2.5,11.2,5.5c9.5,5.1,10.7,5.5,15,4.8c15.5-1.8,29.2-19.7,34.1-44.7c1.4-7,4.3-14.2,7.3-18.5
	c0.1-0.1,6.1,3.8,13.1,8.8c17.9,12.6,21.8,14.6,31.9,15c6.7,0.3,10.4-0.3,22.4-3.1c25.5-6.3,53.1-8.7,69.9-6.5
	c9.5,1.3,23.2,5.5,33.3,10.3c10,4.7,12,4.9,15.2,2.1c2.7-2.3,2.7-2.7,2.7-11.5c-0.1-12.9-4.8-26.8-12-35.1
	c-3.6-4.3-13.9-11.3-24.1-16.7c-3.7-1.9-7.3-3.9-10.8-5.9c-4.8-2.9-10.3-2.5-25.1,1.4c-17.2,4.4-21.8,4.4-41.4-0.6
	c-16.7-4.2-17.7-4.3-34.1-1.7c-8.7,1.3-30.6,0.5-37.9-1.4c-3.7-1.1-7.3-2.1-10.8-3.4c-6.4-2.5-17.5-2.9-27.5-1.1
	c-19.9,3.5-35,14.3-40.5,29c-2.9,7.4-2.5,10.9,1.3,13.3c6,3.8,13.9,14.1,13.9,18.1c0,0.3-1.9-1.4-4.2-3.8
	c-5.6-5.9-10.7-8.5-16.7-8.5c-8,0.3-15.1,5-18.4,12.1c-1.7,4.6-3.3,9.3-4.4,14.1c-3.6,13.3-6.9,20.3-13.8,29.7
	c-6.1,8.5-7,12.2-4.8,21.7c5.5,24,15,33.6,54.7,56.1c20.8,11.9,31.5,18.5,39.3,24.4c6,4.4,6.1,4.7,5.6,8.1
	c-1.2,7.8,3.8,16.3,13.5,23.2c2.5,1.7,4,3.5,4,4.8c0,2.4,6.7,5.6,11.5,5.6C498.5,392.1,500.6,390.9,506.3,386.6L506.3,386.6z
	 M666.8,342.7c15.1,0.5,15.9-0.6,7.8-10c-8.5-9.8-10.8-17.7-7.7-26.4l1.3-3.4l-5.4-2.6c-1.8-0.9-3.7-1.8-5.5-2.5
	c-0.9,3.5-1.8,6.9-2.6,10.4c-1.9,8-4.3,28.5-4.4,37.3c0,0.8,1.3,0.5,3.5-0.9C657.1,342.7,658.6,342.5,666.8,342.7L666.8,342.7z
	 M616.2,341.9c9.1-0.5,18.5-1.2,21-1.6l4.5-0.6l0.5-15c0.8-21.4,3.9-34,13.2-54.2c6.5-14.3,9.4-26.8,8-36.2c-0.5-4-0.8-4.3-6.3-6.6
	c-10-4-20.5-6.8-31.1-8.5c-10.3-1.4-40.5-0.6-51.8,1.6c-4.7,0.8-13.3,2.6-19,4c-14.2,3.3-21.8,2.9-32.6-1.8
	c-10.7-4.7-17.4-9-23.8-15c-5.1-4.7-5.6-4.9-6.9-3.4c-1,1.2-1.6,4.7-1.9,12.2c-0.4,11.6-2.2,17.7-7.3,25.9c-1.2,1.7-2.1,3.5-2.9,5.3
	c0,0.4,3.9,4.9,8.7,9.9c16.7,17.3,24.9,21.8,38,20.8c4.3-0.4,7.3-0.3,7.3,0.3c0,1-8.5,7.7-12,9.5c-1.7,0.9-2.1,1.8-1.8,3.8l2.1,13.7
	c1.2,7.8,2.1,11.5,3.3,12.5c3.1,2.6,19.3,11,29.4,15.1c13.3,5.4,20.6,7.3,30.7,8.2C597.9,342.9,598.2,342.9,616.2,341.9L616.2,341.9
	z M508.5,327.6c0.3-0.4-0.6-8-2.3-16.7c-2.1-11.9-3.3-16.1-4.5-17.3c-0.9-0.8-5.7-4.2-10.6-7.7c-6.4-4.6-12.4-9.6-18-15l-9-8.9
	l-4.8,2.5l-5.1,2.7c0.4,2.1,1.2,4,2.1,5.9c1.4,3.1,4.3,10.8,6.4,17c5.5,16.3,9.8,24.1,20.6,38.3l4,5.3l7.7,1.2
	c4.3,0.7,8.6,1.6,9.8,2c1.8,0.8,2.1,0.4,2.6-3.8C507.5,331.4,507.9,329.4,508.5,327.6L508.5,327.6z M673.5,165.6
	c6.7-0.6,7.8-1.6,4.9-4.6c-1.8-1.8-6-1.9-9.4-0.4c-2.2,1-2.7,0.8-6.3-3c-3.6-4-3.9-4.2-8.5-3.6c-4.2,0.5-4.8,0.4-5.4-1.3
	c-1.7-2.9-3.6-5.4-6-7.6c-3-3.4-6.7-6-10.8-7.7c-8.1-3.1-12.6-2.7-20.3,1.6c-22.3,12.1-21.4,12-42.9,6.5c-20-5.1-35-10.3-39.8-13.5
	c-4-2.7-12.6-5.7-19.8-6.7c-5.4-0.8-8.7,0.4-13.8,4.6l-2.7,2.2l2.5,4.3c3.4,6,3,6.4-2.1,2c-5.5-4.6-12-7.7-16.1-7.8
	c-3,0-11.9,3.9-12.9,5.6c-0.4,0.5,2.4,1.2,6,1.4c3.8,0.4,9,1.7,12.5,3.1c9.1,3.9,13.8,5.2,22.1,6c9.1,0.9,25.6-0.1,27.6-1.7
	c1-0.9,3.9-1,9.9-0.5c8,0.5,11.2,1.3,30.1,6.4c11,3,18.6,2.7,31.7-0.8c6-1.7,13.5-3.4,16.7-3.8c5.4-0.5,6.4-0.3,14.7,3.5
	c13.3,6,20.3,9.8,24.2,13.3c3.9,3.4,4.4,3.4,13.8,2.6L673.5,165.6z M599.2,142.9l8-4.2l-0.3-8.1c-0.1-5.6-0.4-11.1-0.6-16.5
	l-0.6-8.3l-8,6.1c-4.7,3.7-9.3,6.4-11.2,6.8c-5.7,1-34,0-36.6-1.4c-3.5-2.6-6.8-5.5-9.8-8.6l-7.3-7.4l-0.1,4.4
	c0,2.3-0.3,6.4-0.8,8.9c-0.6,4.7-0.6,4.8,4.4,11.2c2.7,3.5,5,6.7,5,7c0,2.5,37.6,14.2,46.1,14.3C590.1,147,593.5,145.9,599.2,142.9
	L599.2,142.9z M584.1,113.3c9.4-1.8,13.9-8.6,17.5-25.8c3.6-18.5,5.5-47.5,3.8-59.9c-1.6-11.2-14.1-16.2-37.9-15.4
	c-14.8,0.5-21,1.9-26,6.3c-3.1,2.6-3.1,2.9-4.5,15.2c-2.6,23.7,1.3,57.4,8.1,70.1c3.2,6.1,6.1,8.3,12.1,9.4
	C563.8,114.3,578.2,114.3,584.1,113.3L584.1,113.3z"/>
</svg>
