<?xml version="1.0" encoding="utf-8"?>
<!-- Generator: Adobe Illustrator 24.0.1, SVG Export Plug-In . SVG Version: 6.00 Build 0)  -->
<svg version="1.1" id="Layer_1" xmlns="http://www.w3.org/2000/svg" xmlns:xlink="http://www.w3.org/1999/xlink" x="0px" y="0px"
	 viewBox="0 0 800 800" style="enable-background:new 0 0 800 800;" xml:space="preserve">
<style type="text/css">
	.st0{fill-rule:evenodd;clip-rule:evenodd;fill:#FFFFFF;}
</style>
<path class="st0" d="M233.3,733.3c-55.2,0-100-44.8-100-100v-200H100c-29.7,0-44.6-35.9-23.6-56.9l300-300c13-13,34.1-13,47.1,0
	l300,300c21,21,6.1,56.9-23.6,56.9h-33.3v200c0,55.2-44.8,100-100,100H233.3z M400,147.1L178.4,368.8C191,373.5,200,385.7,200,400
	v233.3c0,18.4,14.9,33.3,33.3,33.3l66.7,0l0-133.3c0-36.8,29.8-66.7,66.7-66.7h66.7c36.8,0,66.7,29.8,66.7,66.7l0,133.3l66.7,0
	c18.4,0,33.3-14.9,33.3-33.3V400c0-14.3,9-26.5,21.6-31.2L400,147.1z M433.3,533.3h-66.7v133.3h66.7V533.3z"/>
</svg>
