<?xml version="1.0" encoding="utf-8"?>
<!-- Generator: Adobe Illustrator 24.0.1, SVG Export Plug-In . SVG Version: 6.00 Build 0)  -->
<svg version="1.1" id="Layer_1" xmlns="http://www.w3.org/2000/svg" xmlns:xlink="http://www.w3.org/1999/xlink" x="0px" y="0px"
	 viewBox="0 0 800 800" style="enable-background:new 0 0 800 800;" xml:space="preserve">
<style type="text/css">
	.st0{fill:#FFFDFD;}
</style>
<g id="c133de6af664cd4f011a55de6b0011b2">
	<path class="st0" d="M48,0.8l64.1,718.6l287.5,79.8l288.3-79.9L752,0.8H48z M618.4,171.3l-4,44.7l-1.8,19.8h-0.3H400h-0.3H275.3
		l8.1,90.3h116.3h0.3h180.8h23.8l-2.2,23.7l-20.7,232l-1.3,14.9l-180.4,50v0l-0.4,0.1l-180.5-50.1l-12.3-138.4h40.8h47.7l6.3,70.3
		l98.2,26.5l0.1,0v0l98.3-26.5l10.2-114.3H400h-0.3H202.8l-21.7-242.9l-2.1-23.6h220.7h0.3h220.5L618.4,171.3z"/>
</g>
</svg>
