<?xml version="1.0" encoding="utf-8"?>
<!-- Generator: Adobe Illustrator 24.0.1, SVG Export Plug-In . SVG Version: 6.00 Build 0)  -->
<svg version="1.1" id="Layer_1" xmlns="http://www.w3.org/2000/svg" xmlns:xlink="http://www.w3.org/1999/xlink" x="0px" y="0px"
	 viewBox="0 0 800 800" style="enable-background:new 0 0 800 800;" xml:space="preserve">
<style type="text/css">
	.st0{fill:#FFFFFF;}
</style>
<path class="st0" d="M295.1,618.6c0,0-30.6,17.8,21.7,23.8c63.4,7.3,95.8,6.3,165.6-7c0,0,18.3,11.6,44,21.6
	C369.8,724.1,172,653,295.1,618.6L295.1,618.6z M275.9,531.1c0,0-34.4,25.4,18,30.7c67.9,7,121.2,7.7,213.8-10.1
	c0,0,12.8,12.9,33,20C351.3,627.1,140.4,576,275.9,531.1L275.9,531.1z M437.2,382.6c38.5,44.4-10.2,84.4-10.2,84.4
	S525,416.3,480,353c-42-59.1-74.3-88.4,100.1-189.6C580.2,163.4,306.4,231.8,437.2,382.6L437.2,382.6z M644.3,683.5
	c0,0,22.7,18.6-24.9,33.1c-90.4,27.3-376.2,35.5-455.6,1c-28.5-12.4,25-29.7,41.8-33.2c17.6-3.9,27.6-3.1,27.6-3.1
	c-31.8-22.4-205.2,43.9-88.1,62.9C464.5,796,727.2,720.9,644.3,683.5L644.3,683.5z M309.8,440.4c0,0-145.4,34.5-51.6,47
	c39.7,5.3,118.8,4.2,192.5-2.1c60.1-5.1,120.6-15.9,120.6-15.9s-21.2,9.1-36.6,19.7c-147.7,38.8-432.9,20.7-350.8-19
	C253.3,436.6,309.8,440.4,309.8,440.4L309.8,440.4z M570.6,586.2c150-78.1,80.6-153,32.3-142.8c-11.9,2.3-17.2,4.6-17.2,4.6
	s4.3-6.9,12.8-9.9c95.8-33.7,169.5,99.3-30.9,152.1C567.6,590,569.9,588.1,570.6,586.2L570.6,586.2z M480.1,0
	c0,0,83.1,83.1-78.9,210.9c-129.8,102.6-29.6,161.1,0,227.9c-75.8-68.4-131.4-128.5-94.1-184.5C361.8,171.9,513.5,132,480.1,0z
	 M324.5,797.5c144,9.1,365.2-5.2,370.6-73.3c0,0-10.2,25.8-119.2,46.3C453,793.7,301.3,791,211.3,776.2
	C211.3,776.2,229.8,791.4,324.5,797.5L324.5,797.5z"/>
</svg>
