<?xml version="1.0" encoding="utf-8"?>
<!-- Generator: Adobe Illustrator 24.0.1, SVG Export Plug-In . SVG Version: 6.00 Build 0)  -->
<svg version="1.1" id="Layer_1" xmlns="http://www.w3.org/2000/svg" xmlns:xlink="http://www.w3.org/1999/xlink" x="0px" y="0px"
	 viewBox="0 0 800 800" style="enable-background:new 0 0 800 800;" xml:space="preserve">
<style type="text/css">
	.st0{fill-rule:evenodd;clip-rule:evenodd;fill:#FFFFFF;}
</style>
<g id="_x35_151e0c8492e5103c096af88a51e75c7">
	<path class="st0" d="M1.6,0.8C0.7,0.9,0.8,2,0.8,3.1c0,265.1,0,530.2,0,795.3c264.6,1.8,532.5,0.3,798.4,0.8
		c0-266.1,0-532.2,0-798.3C533.3,0.8,267.4,0.8,1.6,0.8z M406.1,706.5c-18.5,18.6-47.6,29.6-83.5,29.6c-58.8,0-91.5-28.7-112.3-68.3
		c20.1-12.8,40.6-25.2,61.5-37.2c8.5,23.8,37.3,50.7,69.8,34.2c20.6-10.5,18.2-42.2,18.2-76.6c0-71.5,0-154,0-218.6
		c-0.1-1.1-0.1-2.1,0.8-2.3c24.5,0,49.1,0,73.6,0c0,57.5,0,122.5,0,183.6C434.2,617.5,438.9,673.4,406.1,706.5z M735.5,640.5
		c-4.2,62.3-55.1,95.4-123.7,95.6c-67.3,0.2-110.4-29.7-136.6-75.9c18.9-13,40.3-23.5,60-35.7c15.8,24.6,43,48.3,83.5,44.8
		c25.2-2.2,54.5-22.7,37.9-53.9c-8-15.1-27.4-22.8-44.8-30.4c-55.2-24.1-120-46.2-113.8-132.8c2.1-28.9,15.4-49.3,32.6-63.7
		c17.7-14.8,41.3-24.8,72.9-25.8c57.2-1.8,88.6,23.6,110,59.2c-18.2,13.9-38.3,25.9-58.4,37.9c-6.6-20.3-38.5-40.1-65.3-28.1
		c-12.2,5.5-23.1,21.5-16.7,41c5.7,17.4,29,26.9,47.8,34.9C677.7,532,741.1,555.8,735.5,640.5z"/>
</g>
</svg>
