<?xml version="1.0" encoding="utf-8"?>
<!-- Generator: Adobe Illustrator 24.0.1, SVG Export Plug-In . SVG Version: 6.00 Build 0)  -->
<svg version="1.1" id="Layer_1" xmlns="http://www.w3.org/2000/svg" xmlns:xlink="http://www.w3.org/1999/xlink" x="0px" y="0px"
	 viewBox="0 0 800 800" style="enable-background:new 0 0 800 800;" xml:space="preserve">
<style type="text/css">
	.st0{fill:#FFFFFF;}
</style>
<g transform="matrix(.569 0 0 .569 199.451 -82.735)">
	<path class="st0" d="M527,802.3l-278.2,90.8L6.8,1000l-67.7,17.9c-17.2,16.4-35.3,33-54.9,49.8c-21.4,18.5-41.4,35.3-56.8,47.5
		c-17,13.5-42.3,38.7-55.1,54.7c-19.1,24-34.3,49.4-40.8,69c-11.6,35.3-5.9,71.1,16.4,104.1c28.6,42.1,85.6,85,152,114.2
		c33.9,14.9,90.8,34.1,133.7,44.8c71.3,18.1,209.2,37.6,285.2,40.6c15.3,0.6,36,0.6,36.8,0c1.7-1.1,13.5-23.6,27.1-51.5
		c46.7-95.3,80.3-184.6,98.6-261c10.9-46.3,19.6-107.9,25.2-180.9c1.5-20.4,2.1-88.7,0.8-111.9c-1.9-37.9-5.3-68.6-10.5-98.6
		c-0.8-4.4-1.1-8.4-0.6-8.6c0.8-0.6,3.4-1.5,37.6-11.4L527,802.3L527,802.3L527,802.3L527,802.3z M463.5,839.5
		c2.5,0,9.3,64.6,10.9,105.4c0.4,8.6,0.2,14.3-0.2,14.3c-1.7,0-35.5-20-59.7-35.1c-21-13.2-61-39.7-67.3-44.8
		c-2.1-1.5-1.9-1.7,15.3-7.6C391.8,861.8,461.2,839.5,463.5,839.5z M321.8,886.2c1.9,0,6.7,2.7,18.3,9.9
		c43.3,27.1,102.2,59.9,127.4,70.9c7.8,3.4,8.6,2.1-9.3,14.3c-38.3,26.1-86,51.7-144.5,77.6c-10.3,4.6-18.9,8.2-19.1,8.2
		c-0.4,0,0.8-5.3,2.5-11.6c14.1-52.4,22.1-105.4,22.5-147.8c0.2-21,0.2-21,2.1-21.7C321.3,886.2,321.6,886.2,321.8,886.2
		L321.8,886.2z M292.5,897.4c1.3,1.3,0.4,48.4-1.3,61.2c-3.8,30.7-9.7,59.3-19.3,91.5c-2.3,7.8-4.4,14.3-4.8,14.7
		c-0.8,1.1-29.7-27.1-39.1-38.1c-16.4-18.9-29.2-37.9-38.7-56.4c-4.8-9.5-12.4-28-11.8-28.6C180.9,939.4,291.7,896.5,292.5,897.4
		L292.5,897.4z M155,951.4c0.2,0,0.4,0,0.6,0.2c0.4,0.4,1.9,3.8,3.2,7.6c6.7,18.3,21.9,45.2,34.9,62.5c14.3,18.9,33,39.1,48.6,52.4
		c5,4.2,9.7,8.2,10.3,8.8c1.3,1.3,1.7,1.1-32.6,14.1c-39.7,15.1-83.1,30.3-132.7,46.3c-11.9,3.8-23.7,7.7-35.5,11.6
		c-1.9,0.6-1.3-0.4,4.2-9c24.6-38.5,62-114,83.1-167.4c3.6-9.3,7.1-18.5,7.8-20.6c0.8-2.9,1.9-4,4.6-5.5
		C152.9,951.8,154.4,951.4,155,951.4L155,951.4z M113,968.9c0.6,0.4-10.1,22.9-20.6,43.5c-20.4,39.7-42.7,78.9-72.6,126.4
		c-5,8.2-9.9,15.8-10.5,16.6c-1.1,1.5-1.5,1.1-4.8-5.5c-7.1-14.1-13-32.2-16.2-48.8c-3.2-16.4-2.5-45,1.1-62.7
		c2.7-13,2.5-12.8,8.8-16C25,1008.8,112.1,968,113,968.9L113,968.9z M475.7,983.6v8.8c0,46.9-5,111.2-12.4,158.1
		c-1.3,8.2-2.3,14.9-2.5,15.1c0,0-6.1-1.7-13.2-3.8c-31.5-9.9-65.8-24.4-96.7-41.4c-20.4-11.1-50.1-29.4-49.2-30.3
		c0.2-0.2,9-4.8,19.3-10.3c41.2-21.4,80.8-44.6,115-67.5c12.8-8.6,32.2-22.5,36.4-26.3L475.7,983.6L475.7,983.6z M-45.8,1045.8
		c0.8,0,0.6,1.7-0.6,9.3c-0.8,5.5-1.9,15.6-2.3,22.5c-1.7,30.7,3.4,53.4,18.5,84.5c4.2,8.6,7.6,15.8,7.4,16
		c-1.5,1.3-140.7,42.1-184.4,54c-13,3.6-24.4,6.7-25.2,6.9c-1.5,0.4-1.7,0.2-1.1-3.4c4.8-30.9,28.4-71.3,61.2-105.4
		c21.9-22.7,39.3-36,69.2-53c21.4-12.2,54.5-30.5,57-31.3C-46.2,1045.8-46,1045.8-45.8,1045.8L-45.8,1045.8z M282.2,1104.5
		c0.2-0.2,5.3,2.5,11.4,6.1c45,26.1,107.7,50.3,161.1,62.7l4.8,1.1l-6.7,3.8c-28,15.6-119.9,53.8-213.9,89
		c-13.7,5-27.1,10.1-29.7,11.1c-2.5,1.1-4.8,1.7-4.8,1.5c0-0.2,3.8-7.6,8.6-16.6c26.3-49.2,52.8-109.1,66.2-150.8
		C281,1108.3,282,1104.7,282.2,1104.5L282.2,1104.5z M248.8,1115.4c0.2,0.2-1.5,4.6-3.6,9.7c-18.3,44.4-42.3,92.7-73,147
		c-7.8,13.9-14.3,25-14.5,25c-0.2,0-6.5-3.8-14.1-8.4c-44.6-27.3-84.1-61-110-93.6l-3.8-4.6l19.1-5.3
		c68.6-18.7,126.8-38.9,184.6-63.7C241.9,1118.2,248.6,1115.4,248.8,1115.4z M456.6,1188C456.6,1188,456.8,1188.2,456.6,1188
		c0.2,4.8-10.5,48.2-19.3,79.5c-7.4,26.3-13.7,46.9-25.2,83.3c-5,16-9.5,29.2-9.7,29.2c-0.2,0-1.5-0.2-2.7-0.6
		c-62.5-11.4-118.4-27.1-171-48.2c-14.7-5.9-35.8-15.4-37-16.4c-0.4-0.4,12.2-6.3,28.2-13.2c95.7-41.8,194.9-89.4,229-109.8
		C452.8,1189.3,455.9,1188,456.6,1188L456.6,1188z M-23.1,1204.4c0.4,0.4-26.3,38.9-63.7,91.3c-13,18.3-28.2,39.7-33.9,47.7
		c-5.7,8-14.3,20.6-19.1,28.2l-8.8,13.7l-9.5-8c-11.1-9.3-30.5-29-39.1-40c-18.1-22.5-30.3-46.3-35.1-67.9
		c-2.3-10.1-2.3-15.1-0.2-15.8c3.2-0.8,59.3-14.1,111.9-26.3c29.2-6.7,63.1-14.7,75.3-17.7C-33.2,1206.7-23.3,1204.4-23.1,1204.4
		L-23.1,1204.4z M3.8,1214.7l6.7,7.6c30.3,33.9,61.2,58.9,98.6,80.8c6.7,3.8,11.8,7.2,11.4,7.4c-1.5,1.1-130,46.7-189.5,67.3
		c-33.4,11.8-61,21.2-61.2,21.2c-0.2,0-2.1-1.3-4.2-2.7l-3.8-2.7l6.1-8.8c19.8-28.6,44.6-59.9,98.6-125.1L3.8,1214.7L3.8,1214.7z
		 M171.6,1334.8c0.2-0.2,9.5,3.2,20.8,7.4c27.3,10.3,49,16.8,78,24.2c35.8,9,87.5,17.9,118,20.4c4.6,0.4,7.2,0.8,6.3,1.5
		c-1.5,0.8-32.4,11.1-55.1,18.3c-36.2,11.4-146.6,43.9-236.6,69.8c-16.6,4.8-30.9,8.8-31.8,9c-2.1,0.4-9-1.5-9-2.3
		c0-0.4,5-6.9,11.1-14.1c30.3-36.2,60.4-76.5,85.4-114.8C165.7,1343.6,171.6,1335,171.6,1334.8L171.6,1334.8z M134.6,1335.8
		c0.2,0.2-14.7,24.2-40.8,65.4c-11.1,17.5-23.6,37.2-28,44.2c-4.2,6.7-10.5,17.2-14.1,23.1l-6.1,10.7l-3.2-0.8
		c-7.6-2.1-60.8-20.8-74.9-26.5c-17.5-6.9-35.5-15.4-49-22.5c-16.8-9-37.8-22.5-36.2-22.9c0.4-0.2,29.2-8,63.9-17.5
		c92.1-25,143.2-39.5,176.7-50.1C129.1,1337.1,134.4,1335.6,134.6,1335.8L134.6,1335.8z M396.4,1397.2h0.2
		c0.8,2.1-33.2,96.7-45.6,126.6c-2.7,6.7-3.8,8.4-5.3,8.2c-3.6-0.2-53-7.1-83.1-11.6c-52.4-8-140.3-23.3-162.3-28.4l-5-1.1l31.3-7.2
		c67.3-15.1,99.7-23.3,132.5-33.4c41.4-12.6,82.4-28.4,123.9-47.7C389.5,1399.8,395,1397.4,396.4,1397.2L396.4,1397.2z"/>
	<path class="st0" d="M240.2,153.8c-4.6-0.6-79.3,26.3-127.4,45.8c-65,26.5-115.5,51.7-146.6,73.6c-11.6,8.2-26.1,22.7-28.4,28.4
		c-0.8,2.1-1.3,4.6-1.3,7.1l28.2,26.7l67.1,21.4l159.6,28.6l182.5,31.3l1.9-15.8c-0.6,0-1.1-0.2-1.7-0.2l-24-3.8l-4.8-8.6
		c-24.8-43.7-52.2-98-68.1-134.6c-12.4-28.4-24.2-61.2-30.7-84.7C242.9,154.8,242.5,154,240.2,153.8L240.2,153.8L240.2,153.8
		L240.2,153.8z M236.8,164.5h0.2c0.2,0.2,1,6.1,1.9,13c3.6,29.4,10.1,57.8,20.4,88.5c7.8,23.1,7.8,21.9-1.3,19.1
		c-21.4-5.9-117.6-22.5-187.2-32.2c-11.1-1.5-20.6-2.9-20.6-3.2c-0.8-0.8,50.3-27.6,72.8-38.1C151.9,198.6,230.9,165.5,236.8,164.5z
		 M34.1,258.7l8.2,2.7C86.9,276.6,199,298,260.8,303.1c6.9,0.6,12.8,1.3,13,1.3c0.2,0.2-5.7,3.4-13.2,6.9
		c-29.9,14.9-62.7,33.2-85.4,47.3c-6.7,4.2-12.8,7.6-13.7,7.6c-0.8,0-5.3-0.8-9.9-1.5l-8.4-1.3l-21-20.6c-37-36-66-63.7-77.2-74.2
		L34.1,258.7z M25.7,265.2l29.7,37c16.2,20.4,32.6,40.4,36.2,44.8c3.6,4.4,6.5,8,6.3,8.2c-0.8,0.6-42.9-7.6-65.2-12.6
		c-22.9-5.3-32.4-7.8-46.5-12.2l-11.6-3.8v-2.9c0.2-14.1,18.1-35.1,48.4-56.6C22.9,267.1,25.7,265.2,25.7,265.2z M277.6,315.7
		c0.8,0,1.9,1.9,4.4,7.6c7.2,15.8,29.4,58.3,34.9,66.5c1.7,2.7,4.6,2.9-25-1.9c-71.3-11.6-94.2-15.4-94.2-15.8
		c0-0.2,2.1-1.7,4.8-3.2c22.1-12.2,44.4-27.8,64.1-44.4c4.8-4,9.3-7.8,10.1-8.4C277,315.7,277.4,315.5,277.6,315.7z"/>
	<path class="st0" d="M-60.8,298.7c0,0-4.6,7.4-0.2,18.3c2.7,6.7,10.7,14.9,19.8,23.3c0,0,93.6,91.3,104.9,104.3
		c51.7,59.7,74.2,118.6,76.3,199.8c1.3,52.2-8.6,98-33.2,151.2c-43.7,95.5-136.1,200.8-278.4,317.8l20.8-6.9
		c13.5-10.1,31.8-20.8,74.7-44.4c99-54.3,210.5-104.1,347.2-155.4c196.8-74,520.5-160.7,704.7-188.8l19.1-2.9l-2.9-4.6
		c-16.8-26.1-28.4-42.3-42.3-59.5c-40.4-50.1-89.4-90.6-149.3-124.3c-82.4-46.1-189.1-82-324.1-108.7c-25.4-5-81.4-14.7-126.8-21.7
		c-96.3-14.9-158.6-25.2-227.1-37c-24.6-4.2-61.4-10.5-85.8-15.8c-12.6-2.7-36.8-8.4-55.7-14.9C-34.3,322.4-56.1,316.5-60.8,298.7
		L-60.8,298.7z M-6.5,351.2c0.2-0.2,3.6,1.1,8,2.5c8,2.7,18.3,5.9,30.5,9.3c9.2,2.5,18.5,5,27.8,7.4c12.6,3.2,23.1,6.1,23.3,6.1
		c1.5,1.5,22.7,69.4,29.9,95.5c2.7,9.9,4.8,18.3,4.6,18.3c-0.2,0.2-2.5-3.4-5.3-8.2C87.7,438.7,48.8,394.8,3.8,359.4
		C-2.1,355.2-6.5,351.4-6.5,351.2z M97,379.8c1.1,0,5.7,0.6,11.4,1.9c35.8,8,99.9,20.2,140.9,27.1c6.9,1.1,12.4,2.3,12.4,2.7
		c0,0.4-2.5,1.9-5.7,3.6c-6.9,3.6-34.9,20.2-44.2,26.5c-23.3,15.6-44.4,32.4-59.5,47.5c-6.1,6.1-11.4,11.1-11.4,11.1s-1.3-3.6-2.3-8
		c-7.6-29.2-23.3-72.6-37.6-103c-2.3-4.8-4.2-9.3-4.2-9.7C96.8,380,96.8,379.8,97,379.8L97,379.8z M279.1,414.5
		c1.3,0.4,3.4,7.6,7.6,23.3c7.8,30.5,11.4,64.6,10.1,96.3c-0.4,8.8-0.8,17-1.3,18.1l-0.6,2.1l-10.9-3.6
		c-22.5-7.1-59.1-17.9-90.4-26.7c-17.9-4.8-32.4-9.3-32.4-9.7c0-1.3,26.1-27.3,37.2-37.2C219.6,458.5,277.2,413.9,279.1,414.5
		L279.1,414.5z M293.6,416.6c0.6-0.6,87.1,14.3,126.4,21.9c29.2,5.7,71.7,14.5,74.2,15.6c1.3,0.4-3.2,2.9-17.2,9.3
		c-55.5,25-96.7,47.5-137.7,74.9c-10.7,7.1-19.8,13-20,13c-0.2,0-0.4-6.1-0.4-13.5c0-40-8-80.3-22.7-114.4
		C294.6,420,293.4,416.8,293.6,416.6z M517.1,460.8c0.6,0.6-2.1,17.7-4.6,27.8c-7.6,31.3-28,77.8-53,121.6
		c-4.4,7.8-8.4,14.1-8.8,14.3c-0.4,0.2-6.1-2.9-12.6-6.7c-24.4-14.3-52.2-27.8-82.4-40.4c-8.4-3.6-15.8-6.5-16-6.9
		c-1.5-1.3,66.2-46.1,102-67.5C470,485.6,516.3,460,517.1,460.8z M533.1,463.3c1.9,0,40.2,10.5,60.1,16.4
		c49.4,14.7,106.2,35.5,143.2,52.4l15.3,6.9l-10.7,2.5c-90.4,20.8-167.8,44.8-242.5,75.1c-6.1,2.5-11.6,4.6-12,4.6
		c-0.4,0,1.7-4.8,4.4-10.7c22.5-47.7,37-97.6,40.6-140.1C531.9,466.5,532.5,463.3,533.1,463.3L533.1,463.3z M152.1,550.8
		c0.6-0.6,29.9,6.3,45.6,10.7c24,6.7,74.9,23.8,74.9,25c0,0.2-5.7,5-12.4,10.9c-27.5,22.9-54,47.1-85.8,77.8
		c-9.5,9-17.5,16.4-17.9,16.4c-0.4,0-0.6-1.3-0.4-2.9c4.8-35.3,3.8-80.8-2.9-126.8C152.5,556.1,151.9,551,152.1,550.8z M766.3,551.4
		c0.4,0.4-13.5,22.3-22.3,34.7c-12.6,18.1-31.1,42.1-73,94.6c-22.1,27.8-46.9,59.1-55.1,69.6c-8.4,10.5-15.4,19.3-15.6,19.3
		c-0.2,0-2.9-3.8-5.9-8.4c-23.6-35.3-51.7-66.2-85.2-94c-6.3-5.3-13.2-10.9-15.6-12.6c-2.3-1.7-4.2-3.4-4.2-3.6
		c0-0.6,35.7-16,62.9-26.9c47.5-19.3,112.3-42.5,160.9-57.4C738.8,558.8,765.9,551,766.3,551.4L766.3,551.4z M782.5,555.6
		c0.8-0.2,5.9,2.3,12,5.9c51.1,29.2,101.1,66.9,140.7,105.6c11.1,10.9,38.7,39.5,38.3,39.7c0,0-9.7,0.8-21,1.7
		c-88.5,6.7-201.9,25.4-310.8,51.7c-7.4,1.7-13.9,3.2-14.3,3.2c-0.4,0,7.8-8.2,18.1-18.1c63.9-61.6,93.2-100.5,127.6-169.9
		C777.9,565.1,782.1,556.3,782.5,555.6C782.3,555.6,782.3,555.6,782.5,555.6L782.5,555.6z M314.2,603.6c2.9,0.6,30.3,13.5,50.9,23.8
		c18.9,9.5,47.3,24.6,48.8,25.9c0.2,0.2-9.9,5.5-22.3,11.6c-39.5,19.8-73.4,38.5-108.7,59.9c-10.1,6.1-18.5,11.1-18.7,11.1
		c-0.8,0-0.6-0.8,5-11.1c18.9-34.5,34.1-75.7,42.7-115.9C312.7,605.7,313.6,603.6,314.2,603.6L314.2,603.6z M286.9,608.6
		c0.6,0.6-6.5,26.5-10.9,40.6c-8.6,26.7-23.1,60.1-37.2,85.4c-3.4,5.9-8.4,14.5-11.1,19.3l-5.3,8.4L210.5,751
		c-13.7-13.2-24.8-21.5-39.1-28.8c-5.7-2.9-10.1-5.5-10.1-5.9c0-1.7,36-34.3,63.5-57.8C244.6,641.4,286.2,608,286.9,608.6
		L286.9,608.6z M454,677.4l10.3,6.7c23.5,15.4,51.3,35.8,72.5,53.6c12,9.9,35.1,30.7,39.7,35.8l2.5,2.7l-17,4.8
		c-96.3,26.7-170.8,50.5-257.6,82.4c-9.7,3.6-17.9,6.5-18.5,6.5c-1.3,0-2.3,1.1,19.4-18.9c55.5-51.1,104.7-107.5,141.3-162.3
		L454,677.4L454,677.4z M410.1,688.3c0.4,0.4-28.4,41-45.6,63.9c-20.6,27.3-57.2,73.2-82.4,103c-10.5,12.4-19.6,22.7-20,22.9
		c-0.6,0.2-0.8-2.9-0.8-7.8c0-25.4-6.5-52.6-17.9-75.7c-4.8-9.7-5.7-12-4.6-13c4-3.6,65.2-38.5,103.9-59.3
		C368.7,708.5,409.5,687.9,410.1,688.3L410.1,688.3z M144.3,753.5c0.6,0,5.5,2.5,10.9,5.5c13.5,7.4,25.4,15.6,36.2,24.4
		c0.4,0.4-5,4.8-12.2,10.1c-20,14.3-50.3,37.2-67.9,51.3c-18.5,14.7-19.1,15.1-17,12c13.9-21.2,20.8-33.2,28.2-48.6
		c6.5-13.7,13-29.9,17.7-44C141.8,758.2,143.9,753.5,144.3,753.5L144.3,753.5z M215.2,809c1-0.2,2.3,1.7,8,10.1
		c12,17.9,21.2,41.8,23.6,61.2l0.4,4.2l-28.8,11.1c-51.5,20-99,39.7-131.2,54.5c-9,4.2-24.8,11.8-35.1,16.8
		c-10.3,5.3-18.7,9.3-18.7,9s6.5-5,14.5-10.9c62.9-45.6,117.3-95.7,158.1-145.7c4.4-5.3,8.4-10.1,8.8-10.3L215.2,809L215.2,809z
		 M182.6,817c0.8,0.8-23.1,28-39.5,44.6C102.4,903,62.3,935.4,12.4,967c-6.3,4-12,7.6-12.6,8c-1.5,0.8,0.4-1.3,22.3-25
		C36,935,46.5,922.4,58.5,906.8c8-10.3,9.5-11.8,21-20C110.4,864.6,181.7,816.2,182.6,817z"/>
</g>
</svg>
