<?xml version="1.0" encoding="utf-8"?>
<!-- Generator: Adobe Illustrator 24.0.1, SVG Export Plug-In . SVG Version: 6.00 Build 0)  -->
<svg version="1.1" id="Layer_1" xmlns="http://www.w3.org/2000/svg" xmlns:xlink="http://www.w3.org/1999/xlink" x="0px" y="0px"
	 viewBox="0 0 800 800" style="enable-background:new 0 0 800 800;" xml:space="preserve">
<style type="text/css">
	.st0{fill:#FFFFFF;}
</style>
<path class="st0" d="M450.9,3.3C231.8-24.7,31.4,129.9,3.3,349.1c-28,219.1,126.7,419.5,345.8,447.6
	c219.1,28,419.5-126.7,447.5-345.8C824.7,231.8,670.1,31.4,450.9,3.3L450.9,3.3z M533.2,252.9c-7.4,0-14.5,3-19.7,8.3L365.1,409.5
	l-10.3-10.2l-21.4-21.5C479.7,232,506.1,230.6,533.2,252.9L533.2,252.9z M371.2,414.8l147.9-148c8.2-8.6,21.9-8.5,30.1,0.1
	c8.1,8.7,7.3,22.4-1.8,29.9L390.8,434.4L371.2,414.8z M382.2,438l-36.7,7.9c-0.8,0.1-1.8-0.3-2.2-1.2c-0.4-0.8-0.3-1.7,0.4-2.4
	l21.5-21.5L382.2,438z M288.7,422.7l39.2-39.1l29.3,29.3l-66,14.2c-1.2,0.3-2.3-0.2-2.9-1.3C287.7,424.8,287.9,423.4,288.7,422.7z
	 M167.2,624.6c-1.4-0.1-2.5-1.4-2.4-2.7c0.1-0.6,0.4-1.2,0.8-1.6h0.1l31.5-31.5l40.8,40.8L167.2,624.6z M248,582.7
	c-3.1,1.7-4.7,5.2-3.9,8.6l6.8,28.8c1.1,4.2-4,7-7,3.9h-0.1l-40.9-40.9l125.4-125.3l60.7-13.1l29,29.2
	C376.2,510.6,319,547.1,248,582.7L248,582.7z M424,468.5l-28-28L552.6,303c1.4-1.3,2.7-2.7,3.9-4.2
	C551.7,343.6,488.9,406.9,424,468.5z M546,253.1h-0.1c-54.6-54.8,22.5-139.1,81.9-89.6l-53.6,53.8c-1.6,1.5-1.6,4.2,0,5.7l41.5,41.6
	C592.3,276.2,564.3,271.5,546,253.1L546,253.1z M631.8,253.1c-2.7,2.7-5.7,5.2-9,7.3l-40.2-40.2l51-51.2
	C655.7,193.1,654.8,230.1,631.8,253.1L631.8,253.1z M628.5,201.7c-1.7,1.2-2.3,3.2-1.8,5.2c2.5,4.9,1.8,10.8-1.7,15
	c-1.7,2.1-1.3,5,0.8,6.6c0.8,0.5,1.7,0.9,2.7,0.9c1.4,0,2.8-0.5,3.5-1.6c5.9-7,7-16.9,3-25.1C633.5,200.6,630.6,200.1,628.5,201.7z"
	/>
</svg>
