<?xml version="1.0" encoding="utf-8"?>
<!-- Generator: Adobe Illustrator 24.0.1, SVG Export Plug-In . SVG Version: 6.00 Build 0)  -->
<svg version="1.1" id="Layer_1" xmlns="http://www.w3.org/2000/svg" xmlns:xlink="http://www.w3.org/1999/xlink" x="0px" y="0px"
	 viewBox="0 0 800 800" style="enable-background:new 0 0 800 800;" xml:space="preserve">
<style type="text/css">
	.st0{fill:none;stroke:#FFFFFF;stroke-width:50;stroke-linecap:round;stroke-linejoin:round;stroke-miterlimit:133.3333;}
</style>
<path class="st0" d="M404,426c-2.3-0.3-5.3-0.3-8,0c-58.7-2-105.3-50-105.3-109c0-60.3,48.7-109.3,109.3-109.3
	c60.3,0,109.3,49,109.3,109.3C509,376,462.7,424,404,426z"/>
<path class="st0" d="M624.7,646c-59.3,54.3-138,87.3-224.7,87.3s-165.3-33-224.7-87.3c3.3-31.3,23.3-62,59-86
	c91.3-60.7,240.7-60.7,331.3,0C601.3,584,621.3,614.7,624.7,646z"/>
<path class="st0" d="M400,733.3c184.1,0,333.3-149.2,333.3-333.3S584.1,66.7,400,66.7C215.9,66.7,66.7,215.9,66.7,400
	S215.9,733.3,400,733.3z"/>
</svg>
