<?xml version="1.0" encoding="utf-8"?>
<!-- Generator: Adobe Illustrator 24.0.1, SVG Export Plug-In . SVG Version: 6.00 Build 0)  -->
<svg version="1.1" id="Layer_1" xmlns="http://www.w3.org/2000/svg" xmlns:xlink="http://www.w3.org/1999/xlink" x="0px" y="0px"
	 viewBox="0 0 800 800" style="enable-background:new 0 0 800 800;" xml:space="preserve">
<style type="text/css">
	.st0{fill:#FFFFFF;}
</style>
<g transform="translate(1 1)">
	<g>
		<g>
			<path class="st0" d="M619,484.1V92.3c0-8-5.3-13.3-13.3-13.3H459V65.7c0-8-5.3-13.3-13.3-13.3h-41.3C397.7,21.7,371-1,339-1
				s-58.7,22.7-65.3,53.3h-41.3c-8,0-13.3,5.3-13.3,13.3V79H72.3c-8,0-13.3,5.3-13.3,13.3V759c0,8,5.3,13.3,13.3,13.3h418.5
				c25.3,16.8,55.6,26.7,88.2,26.7c88,0,160-72,160-160C739,564.8,687.8,502,619,484.1z M592.3,105.7V479c-4,0-9.3,0-13.3,0
				c-4.5,0-8.9,0.2-13.3,0.6V145.7c0-8-5.3-13.3-13.3-13.3H459v-26.7H592.3z M521.4,489.8c-53.5,20.1-91.8,68-100.5,124.6
				c-0.1,0.4-0.1,0.8-0.2,1.2c-0.2,1.6-0.5,3.3-0.6,4.9c-0.1,1.2-0.3,2.4-0.4,3.6c-0.1,0.7-0.1,1.4-0.2,2c-0.1,1.8-0.3,3.6-0.3,5.5
				c0,0.4,0,0.9-0.1,1.3c-0.1,2-0.1,4-0.1,6.1c0,16.5,2.1,32,7.2,47.4c0.1,0.4,0.3,0.8,0.4,1.2c0.4,1.2,0.8,2.4,1.2,3.5
				c0.1,0.4,0.3,0.8,0.4,1.2H139V159h80v13.3c0,8,5.3,13.3,13.3,13.3h213.3c8,0,13.3-5.3,13.3-13.3V159h80v325.1
				C533,485.7,527.1,487.6,521.4,489.8z M245.7,79h40c8,0,13.3-5.3,13.3-13.3c0-22.7,17.3-40,40-40s40,17.3,40,40
				c0,8,5.3,13.3,13.3,13.3h40v13.3v53.3V159H245.7v-13.3V92.3V79z M85.7,105.7H219v26.7h-93.3c-8,0-13.3,5.3-13.3,13.3v560
				c0,8,5.3,13.3,13.3,13.3h314.9c5.6,9.6,12.1,18.5,19.4,26.7H85.7V105.7z M579,772.3c-28.1,0-54.2-8.8-75.8-23.8
				c-0.1-0.1-0.1-0.1-0.2-0.2c-17.7-12.5-31.8-28.8-41.6-47.2c-0.2-0.7-0.6-1.5-1-2.1c-7.6-15.1-12.5-31.1-14.1-48
				c-0.1-1.5-0.3-3-0.3-4.5c0-0.6-0.1-1.1-0.1-1.7c-0.1-1.9-0.1-3.9-0.1-5.8c0-2.2,0.1-4.3,0.2-6.5c0-0.6,0.1-1.2,0.1-1.8
				c0.1-1.6,0.2-3.2,0.4-4.8c0.1-0.6,0.1-1.1,0.2-1.7c0.2-1.7,0.4-3.3,0.6-5c0.1-0.4,0.1-0.7,0.2-1.1c7.3-45.8,38-84,79.5-101.8
				c8.9-3.7,18.3-6.4,28.2-8c1.1-0.2,2.2-0.6,3.1-1c6.8-1.1,13.8-1.7,20.9-1.7c1.2,0,2.4,0.1,3.5,0.1c6.8,0.3,13.6,1.4,20.5,2.6
				c1.5,0.5,3,0.6,4.4,0.4c59.8,13.1,104.9,66.7,104.9,130.2C712.3,712.3,652.3,772.3,579,772.3z"/>
			<path class="st0" d="M205.7,265.7h186.7c6.7,0,13.3-5.3,13.3-13.3c0-8-5.3-13.3-13.3-13.3H205.7c-8,0-13.3,5.3-13.3,13.3
				C192.3,260.3,197.7,265.7,205.7,265.7z"/>
			<path class="st0" d="M445.7,265.7h40c6.7,0,13.3-5.3,13.3-13.3c0-8-5.3-13.3-13.3-13.3h-40c-8,0-13.3,5.3-13.3,13.3
				C432.3,260.3,437.7,265.7,445.7,265.7z"/>
			<path class="st0" d="M485.7,292.3H352.3c-8,0-13.3,5.3-13.3,13.3c0,8,5.3,13.3,13.3,13.3h133.3c6.7,0,13.3-5.3,13.3-13.3
				C499,297.7,493.7,292.3,485.7,292.3z"/>
			<path class="st0" d="M485.7,345.7h-53.3c-8,0-13.3,5.3-13.3,13.3c0,8,5.3,13.3,13.3,13.3h53.3c6.7,0,13.3-5.3,13.3-13.3
				C499,351,493.7,345.7,485.7,345.7z"/>
			<path class="st0" d="M205.7,319H299c6.7,0,13.3-5.3,13.3-13.3c0-8-5.3-13.3-13.3-13.3h-93.3c-8,0-13.3,5.3-13.3,13.3
				C192.3,313.7,197.7,319,205.7,319z"/>
			<path class="st0" d="M205.7,372.3h40c6.7,0,13.3-5.3,13.3-13.3c0-8-5.3-13.3-13.3-13.3h-40c-8,0-13.3,5.3-13.3,13.3
				C192.3,367,197.7,372.3,205.7,372.3z"/>
			<path class="st0" d="M205.7,425.7h106.7c6.7,0,13.3-5.3,13.3-13.3c0-8-5.3-13.3-13.3-13.3H205.7c-8,0-13.3,5.3-13.3,13.3
				S197.7,425.7,205.7,425.7z"/>
			<path class="st0" d="M285.7,359c0,8,5.3,13.3,13.3,13.3h80c6.7,0,13.3-5.3,13.3-13.3c0-8-5.3-13.3-13.3-13.3h-80
				C291,345.7,285.7,351,285.7,359z"/>
			<path class="st0" d="M485.7,399h-13.3c-8,0-13.3,5.3-13.3,13.3s5.3,13.3,13.3,13.3h13.3c6.7,0,13.3-5.3,13.3-13.3
				S493.7,399,485.7,399z"/>
			<path class="st0" d="M419,425.7c6.7,0,13.3-5.3,13.3-13.3c0-8-5.3-13.3-13.3-13.3h-53.3c-8,0-13.3,5.3-13.3,13.3
				s5.3,13.3,13.3,13.3L419,425.7L419,425.7z"/>
			<path class="st0" d="M219,452.3h-13.3c-8,0-13.3,5.3-13.3,13.3c0,8,5.3,13.3,13.3,13.3H219c6.7,0,13.3-5.3,13.3-13.3
				C232.3,457.7,227,452.3,219,452.3z"/>
			<path class="st0" d="M485.7,452.3H379c-8,0-13.3,5.3-13.3,13.3c0,8,5.3,13.3,13.3,13.3h106.7c6.7,0,13.3-5.3,13.3-13.3
				C499,457.7,493.7,452.3,485.7,452.3z"/>
			<path class="st0" d="M325.7,452.3h-53.3c-8,0-13.3,5.3-13.3,13.3c0,8,5.3,13.3,13.3,13.3h53.3c6.7,0,13.3-5.3,13.3-13.3
				C339,457.7,333.7,452.3,325.7,452.3z"/>
			<path class="st0" d="M652.3,573.7c-6.7-4-14.7-2.7-18.7,4l-69.3,104l-28-37.3c-4-5.3-13.3-6.7-18.7-2.7c-5.3,4-6.7,13.3-2.7,18.7
				l37.3,49.7c0.8,2.2,2.3,4.2,4.5,5.7c2.5,2.4,5.7,3.3,8.9,3.3c0.4,0,0.8,0,1.3-0.1c0.2,0,0.4-0.1,0.6-0.1c0.3-0.1,0.6-0.1,0.8-0.2
				c0.1,0,0.3-0.1,0.4-0.1c1.6-0.5,3.3-1.3,4.9-2.1c2-1.5,3.5-3.9,4.3-6.4l78.4-117.6C660.3,585.7,659,577.7,652.3,573.7z"/>
		</g>
	</g>
</g>
</svg>
