<?xml version="1.0" encoding="utf-8"?>
<!-- Generator: Adobe Illustrator 24.0.1, SVG Export Plug-In . SVG Version: 6.00 Build 0)  -->
<svg version="1.1" id="Layer_1" xmlns="http://www.w3.org/2000/svg" xmlns:xlink="http://www.w3.org/1999/xlink" x="0px" y="0px"
	 viewBox="0 0 800 800" style="enable-background:new 0 0 800 800;" xml:space="preserve">
<style type="text/css">
	.st0{fill-rule:evenodd;clip-rule:evenodd;fill:#FFFFFF;}
</style>
<title>python [#127]</title>
<desc>Created with Sketch.</desc>
<g id="Page-1">
	<g id="Dribbble-Light-Preview" transform="translate(-340.000000, -7599.000000)">
		<g id="icons" transform="translate(56.000000, 160.000000)">
			<path id="python-_x5B__x23_127_x5D_" class="st0" d="M793.8,8177.3c-19.3,0-34.9-15.7-34.9-35.1c0-19.4,15.6-35,34.9-35
				c19.3,0,34.9,15.6,34.9,35C828.6,8161.6,813,8177.3,793.8,8177.3 M686.9,8239c203.1,0,190.4-88.5,190.4-88.5l-0.2-91.7H683.3
				v-27.5H954c0,0,130,14.8,130-191.2c0-206-113.4-198.7-113.4-198.7h-67.7v95.6c0,0,3.6,114-111.6,114H599c0,0-108-1.7-108,105
				v176.3C491,8132.2,474.6,8239,686.9,8239 M574.3,7500.7c19.3,0,34.8,15.7,34.8,35.1c0,19.4-15.6,35-34.8,35
				c-19.3,0-34.9-15.6-34.9-35C539.4,7516.4,555,7500.7,574.3,7500.7 M681.1,7439c-203.1,0-190.4,88.5-190.4,88.5l0.2,91.7h193.8
				v27.5H414c0,0-130-14.8-130,191.2c0,206,113.4,198.7,113.4,198.7h67.7v-95.6c0,0-3.6-114,111.6-114H769c0,0,108,1.7,108-105
				v-176.3C877,7545.8,893.4,7439,681.1,7439"/>
		</g>
	</g>
</g>
</svg>
