<?xml version="1.0" encoding="utf-8"?>
<!-- Generator: Adobe Illustrator 24.0.1, SVG Export Plug-In . SVG Version: 6.00 Build 0)  -->
<svg version="1.1" id="Layer_1" xmlns="http://www.w3.org/2000/svg" xmlns:xlink="http://www.w3.org/1999/xlink" x="0px" y="0px"
	 viewBox="0 0 800 800" style="enable-background:new 0 0 800 800;" xml:space="preserve">
<style type="text/css">
	.st0{fill:#FFFFFF;}
</style>
<path class="st0" d="M400,328.6c-39.3,0-71.4,32-71.4,71.4s32,71.4,71.4,71.4s71.4-32,71.4-71.4S439.3,328.6,400,328.6z
	 M200.3,541.8l-15.8-3.9C67.3,508.2,0,458,0,399.9s67.3-108.3,184.5-138l15.8-3.9l4.4,15.6c11.9,40.9,27.1,80.7,45.4,119.3l3.4,7
	l-3.4,7.1c-18.4,38.4-33.6,78.3-45.4,119.3L200.3,541.8z M177.2,298.3c-89.1,25-143.8,63.4-143.8,101.6s54.7,76.4,143.8,101.6
	c11-34.8,24.1-68.6,39.4-101.6C201.3,366.9,188.1,333.1,177.2,298.3L177.2,298.3z M599.8,541.8l-4.4-15.6
	c-11.9-40.9-27.1-80.7-45.5-119.1l-3.4-7.2l3.4-7.1c18.3-38.4,33.6-78.3,45.5-119.3l4.4-15.5l15.8,3.9
	c117.2,29.7,184.5,80,184.5,138s-67.3,108.3-184.5,138L599.8,541.8z M583.3,399.9c16,34.6,29.3,68.6,39.4,101.6
	c89.2-25.1,143.8-63.4,143.8-101.6s-54.7-76.4-143.8-101.6C611.8,332.9,598.7,366.9,583.3,399.9L583.3,399.9z M176.9,298.2
	l-4.4-15.6C139.6,166.4,149.6,83.1,200,54c49.5-28.5,128.8,5.2,212,90.6l11.3,11.6L412,167.8c-29.6,30.7-56.5,63.8-80.7,98.9
	l-4.6,6.4l-7.8,0.7c-42.6,3.4-84.8,10.1-126.2,20.3L176.9,298.2z M240.2,77.2c-9,0-16.9,1.8-23.6,5.7
	c-33.1,19.2-38.9,85.5-16.1,175.1c35.5-8,71.5-13.6,107.8-16.8c20.8-29.7,43.8-58.1,68.4-84.8C324.7,105.9,275.5,77.2,240.2,77.2
	L240.2,77.2z M559.9,755.8C559.8,755.8,559.8,755.8,559.9,755.8c-47.5,0-108.6-35.7-171.9-100.8l-11.3-11.6l11.3-11.6
	c29.5-30.7,56.5-63.8,80.7-99l4.4-6.4l7.8-0.8c42.6-3.3,84.8-10,126.3-20.3l15.8-3.9l4.4,15.6c33,116.1,22.9,199.3-27.5,228.4
	C587.8,752.6,574,756.1,559.9,755.8L559.9,755.8z M423.3,643.2c51.9,50.7,101.2,79.3,136.5,79.3h0.1c8.9,0,16.8-1.9,23.5-5.7
	c33.1-19.2,39.1-85.6,16.2-175.1c-35.6,8-71.6,13.5-107.8,16.7C470.8,588.2,447.9,616.4,423.3,643.2L423.3,643.2z M623.1,298.2
	l-15.8-4c-41.5-10.1-83.7-16.9-126.3-20.3l-7.8-0.7l-4.4-6.4c-24.2-35.1-51.2-68.2-80.7-98.9l-11.3-11.6l11.3-11.6
	C471.2,59.2,550.5,25.5,600,54c50.4,29,60.4,112.4,27.5,228.5L623.1,298.2z M491.7,241.3c38,3.5,74.2,9.1,107.8,16.8
	c22.9-89.6,16.9-156-16.2-175.1c-33-19-94.9,10.1-160,73.6C447.9,183.3,470.7,211.6,491.7,241.3L491.7,241.3z M240.2,755.8
	c-14.1,0.3-28-3.3-40.2-10.3c-50.4-29-60.4-112.3-27.5-228.4l4.4-15.6l15.8,3.9c38.5,9.8,81,16.5,126.2,20.3l7.8,0.8l4.4,6.4
	c24.2,35.2,51.2,68.2,80.7,99l11.3,11.6l-11.3,11.6C348.7,720.2,287.6,755.9,240.2,755.8L240.2,755.8z M200.5,541.7
	c-22.9,89.6-16.9,156,16.1,175.1c32.9,18.8,94.8-10.2,160-73.6c-24.6-26.8-47.5-55.1-68.4-84.9C272,555.2,236.1,549.6,200.5,541.7
	L200.5,541.7z M400,562.6c-27.5,0-55.6-1.2-83.9-3.5l-7.8-0.6l-4.6-6.5c-15.9-22.9-31-46.5-44.9-70.7c-14.1-24.2-27-49-38.9-74.2
	l-3.4-7.1l3.4-7.2c12-25.3,24.9-50,38.9-74.2c13.8-23.8,28.9-47.7,44.9-70.7l4.6-6.5l7.8-0.6c55.9-4.7,112-4.7,167.7,0l7.8,0.6
	l4.5,6.5c31.9,45.8,60,94.4,83.8,144.9l3.4,7.2l-3.4,7.1c-23.8,50.5-51.8,99.1-83.8,144.9l-4.5,6.5l-7.8,0.6
	C455.7,561.4,427.5,562.6,400,562.6z M326.8,526.4c49.2,3.8,97.1,3.8,146.5,0c27.5-40.2,51.9-82.6,73.2-126.6
	c-21.1-44-45.6-86.3-73.3-126.6c-48.7-3.8-97.6-3.8-146.3,0c-27.7,40.2-52.2,82.5-73.3,126.6C274.8,443.9,299.2,486.2,326.8,526.4z"
	/>
</svg>
