<?xml version="1.0" encoding="utf-8"?>
<!-- Generator: Adobe Illustrator 24.0.1, SVG Export Plug-In . SVG Version: 6.00 Build 0)  -->
<svg version="1.1" id="Layer_1" xmlns="http://www.w3.org/2000/svg" xmlns:xlink="http://www.w3.org/1999/xlink" x="0px" y="0px"
	 viewBox="0 0 800 800" style="enable-background:new 0 0 800 800;" xml:space="preserve">
<style type="text/css">
	.st0{fill:#FFFFFF;}
</style>
<path class="st0" d="M0,400v400h800V0H0V400z M644.6,368.1c20.3,5.1,35.8,14.2,50.1,28.9c7.3,7.8,18.2,22.1,19.2,25.6
	c0.3,1.1-34.5,24.4-55.6,37.4c-0.8,0.5-3.9-2.7-7.3-7.8c-10.3-15-21.1-21.5-37.6-22.7c-24.2-1.6-39.8,11.1-39.7,32.3
	c-0.1,5.2,1.1,10.4,3.4,15c5.3,11.1,15.4,17.7,46.3,31.1c57.3,24.6,81.8,40.9,97,63.9c17,25.8,20.8,66.9,9.4,97.6
	c-12.8,33.2-44.3,55.9-88.5,63.3c-13.7,2.5-46.2,2.1-60.9-0.6c-32.2-5.7-62.6-21.6-81.4-42.5c-7.4-8.1-21.8-29.3-20.8-30.7
	c0.4-0.5,3.7-2.6,7.3-4.7s17-9.9,29.7-17.2l23.1-13.4l4.8,7.1c6.8,10.3,21.5,24.4,30.3,29c25.5,13.5,60.6,11.6,77.9-3.9
	c7-5.8,11-14.8,10.4-24c0-9.3-1.2-13.4-6-20.3c-6.3-8.8-18.9-16.4-55-32c-41.3-17.9-59.1-28.8-75.3-46.4c-10.2-11.6-17.7-25.3-22-40
	c-3-11.3-3.8-39.7-1.4-51c8.5-40,38.7-67.7,82-75.9C598.1,363.7,630.9,364.7,644.6,368.1L644.6,368.1z M456.9,401.6l0.3,32.7H353
	v296h-73.7v-296h-104v-32c0-17.9,0.4-32.7,0.9-33.1c0.4-0.5,63.7-0.8,140.5-0.6l139.8,0.4L456.9,401.6z"/>
</svg>
